<svg width="41" height="41" viewBox="0 0 41 41" fill="none" xmlns="http://www.w3.org/2000/svg">
<rect width="41" height="41" fill="white"/>
<path fill-rule="evenodd" clip-rule="evenodd" d="M23.125 17.25C23.125 18.0788 22.7958 18.8737 22.2097 19.4597C21.6237 20.0458 20.8288 20.375 20 20.375C19.1712 20.375 18.3764 20.0458 17.7903 19.4597C17.2043 18.8737 16.875 18.0788 16.875 17.25C16.875 16.4212 17.2043 15.6263 17.7903 15.0403C18.3764 14.4542 19.1712 14.125 20 14.125C20.8288 14.125 21.6237 14.4542 22.2097 15.0403C22.7958 15.6263 23.125 16.4212 23.125 17.25ZM23.2013 21.0913C23.9904 20.4333 24.5576 19.5482 24.826 18.5564C25.0943 17.5646 25.0504 16.5143 24.7005 15.5482C24.3506 14.5822 23.7116 13.7474 22.8705 13.1574C22.0293 12.5675 21.0268 12.2509 19.9994 12.2509C18.972 12.2509 17.9695 12.5675 17.1283 13.1574C16.2871 13.7474 15.6481 14.5822 15.2983 15.5482C14.9484 16.5143 14.9046 17.5646 15.1728 18.5564C15.4411 19.5482 16.0084 20.4333 16.7975 21.0913C15.567 21.673 14.5179 22.5784 13.7624 23.7106C13.0069 24.8429 12.5736 26.1591 12.5088 27.5188C12.5027 27.7638 12.5929 28.0014 12.7599 28.1806C12.9269 28.36 13.1574 28.4669 13.4022 28.4783C13.647 28.4898 13.8866 28.4049 14.0695 28.2419C14.2525 28.0789 14.3644 27.8508 14.3813 27.6063C14.4494 26.1619 15.0711 24.7993 16.1174 23.8013C17.1637 22.8032 18.5541 22.2463 20 22.2463C21.446 22.2463 22.8364 22.8032 23.8826 23.8013C24.9289 24.7993 25.5506 26.1619 25.6188 27.6063C25.6219 27.7311 25.6498 27.854 25.701 27.9679C25.7523 28.0818 25.8258 28.1843 25.9171 28.2693C26.0085 28.3544 26.116 28.4204 26.2331 28.4634C26.3504 28.5064 26.475 28.5255 26.5998 28.5196C26.7245 28.5139 26.8468 28.4831 26.9595 28.4294C27.0721 28.3756 27.173 28.3 27.256 28.2068C27.3391 28.1135 27.4026 28.0046 27.443 27.8865C27.4835 27.7684 27.4999 27.6433 27.4913 27.5188C27.4263 26.159 26.9928 24.8426 26.2371 23.7104C25.4814 22.5782 24.432 21.6728 23.2013 21.0913Z" fill="#222222"/>
</svg>
