<svg width="24" height="24" viewBox="0 0 24 24" fill="none" xmlns="http://www.w3.org/2000/svg">
<path fill-rule="evenodd" clip-rule="evenodd" d="M1 12C1 5.92487 5.92487 1 12 1C18.0751 1 23 5.92487 23 12C23 18.0751 18.0751 23 12 23C5.92487 23 1 18.0751 1 12ZM12 3C7.02943 3 3 7.02943 3 12C3 16.9706 7.02943 21 12 21C16.9706 21 21 16.9706 21 12C21 7.02943 16.9706 3 12 3ZM11.0387 7.04289C11.4293 6.65237 12.0624 6.65237 12.453 7.04289L16.953 11.5429C17.3435 11.9334 17.3435 12.5666 16.953 12.9571L12.453 17.4571C12.0624 17.8476 11.4293 17.8476 11.0387 17.4571C10.6482 17.0666 10.6482 16.4334 11.0387 16.0429L13.8316 13.25H7.24585C6.69357 13.25 6.24585 12.8023 6.24585 12.25C6.24585 11.6977 6.69357 11.25 7.24585 11.25H13.8316L11.0387 8.45711C10.6482 8.06658 10.6482 7.43342 11.0387 7.04289Z" fill="white"/>
</svg>
